# xmcd
#
# Track frame offsets:
#	183
#	13560
#	25695
#	38023
#	50390
#	59320
#	72648
#	85093
#	97978
#	111515
#	123738
#	136075
#	144943
#	157465
#	169993
#	181608
#	195198
#	208260
#	221080
#	236073
#
# Disc length: 3316
#
# Revision: 1
# Processed by: cddbd v1.5.1PL0 Copyright (c) Steve Scherf et al.
# Submitted via: jack 1.3.4
# Normalized: r0:DSETVAR1,TDELIM( - )
#
DISCID=1e0cf214
DTITLE=Various Artist - Rhythm and Blues CD 3
DYEAR=1900
DGENRE=
TTITLE0=King Curtis - Menphis Soul Stew
TTITLE1=Sam and Dave - You Don't Know Like I Know
TTITLE2=Carla Thomas - Let Me Be Good To You
TTITLE3=Rufus Thomas - Sophisticated Sissy
TTITLE4=Solomon Burke - Got To Get You Off My Mind
TTITLE5=Wilson Pickett - 634-5789 (Soulsville U.S.A)
TTITLE6=Aretha Franklin - See-Saw
TTITLE7=Ray Charles - I Got A Woman
TTITLE8=Ben E. King - Spanish Harlem
TTITLE9=The Drifters - Under The Boardwalk
TTITLE10=Otis Redding - Mr. Pitifull
TTITLE11=Rufus and Carla Thomas - That's Really Some Good
TTITLE12=Sam and Dave - I Thank You
TTITLE13=Aretha Franklin - (You Make Me Feel Like) A Natural Woman
TTITLE14=Wilson Pickett - Funky Broadway
TTITLE15=Eddie Floyd - Big Bird
TTITLE16=William Bell - A Tribute To A King
TTITLE17=Arthur Conley - Otis Sleep On
TTITLE18=Otis Redding - Try A Little Tenderness
TTITLE19=Clarence Carter - Funky Fever
EXTD=
EXTT0=
EXTT1=
EXTT2=
EXTT3=
EXTT4=
EXTT5=
EXTT6=
EXTT7=
EXTT8=
EXTT9=
EXTT10=
EXTT11=
EXTT12=
EXTT13=
EXTT14=
EXTT15=
EXTT16=
EXTT17=
EXTT18=
EXTT19=
PLAYORDER=
